<svg xmlns="http://www.w3.org/2000/svg" width="400" height="400" viewBox="0 0 105.833 105.833"><g style="display:inline" transform="translate(-43.749 -100.135)"><rect width="105.833" height="105.833" x="43.749" y="100.135" ry="16.802" style="fill:#128195;fill-opacity:1;stroke:none;stroke-width:1.43031;stroke-dasharray:none;stroke-opacity:1"/><path d="M86.849 150.306v-16.35h2.692v3.122h.06q.21-1.576 1.346-2.497 1.137-.922 3.052-.922 2.573 0 3.949 1.546 1.406 1.516 1.406 4.34v1.397H96.66v-1.397q0-3.567-3.5-3.567-1.765 0-2.692 1.01t-.928 2.914v10.404zm23.574.297q-2.902 0-4.697-1.724-1.765-1.754-1.765-4.816V140.2q0-3.062 1.765-4.786 1.795-1.754 4.697-1.754 1.944 0 3.38.773 1.466.773 2.274 2.17t.808 3.3v2.913h-10.291v1.546q0 1.813 1.047 2.883 1.047 1.04 2.782 1.04 1.496 0 2.453-.564.987-.595 1.197-1.576h2.692q-.27 2.051-2.004 3.27-1.735 1.19-4.338 1.19m-3.83-9.87h7.66v-.831q0-1.933-1.018-2.973-.987-1.07-2.812-1.07t-2.842 1.07q-.987 1.04-.987 2.973zm18.13 14.924 2.423-6.362-6.133-15.339h2.902l3.89 10.107q.239.595.448 1.249t.3 1.13q.089-.476.298-1.13.21-.654.42-1.249l3.619-10.107h2.842l-8.197 21.7z" aria-label="rey" style="font-size:25.4px;line-height:0;font-family:&quot;JetBrainsMono Nerd Font&quot;;-inkscape-font-specification:&quot;JetBrainsMono Nerd Font&quot;;letter-spacing:0;fill:#fff;fill-opacity:1;stroke:none;stroke-width:1.05833;stroke-dasharray:none;stroke-opacity:1" transform="matrix(.85272 0 0 .85272 12.41 21.465)"/><path d="M97.32 175.055q-2.184 0-3.5-1.248-1.287-1.279-1.287-3.36v-14.655h-5.684v-2.437h8.376v17.092q0 1.011.569 1.606.568.564 1.526.564h5.085v2.438zm9.124 0v-2.438h5.834v-11.474h-5.236v-2.438h7.928v13.912h5.535v2.438zm6.88-19.293q-.987 0-1.555-.505t-.568-1.367q0-.892.568-1.397.568-.536 1.556-.536.987 0 1.555.535.569.506.569 1.398 0 .862-.569 1.367-.568.505-1.555.505m17.472 19.59q-2.842 0-4.547-1.664-1.706-1.695-1.706-4.578v-10.405h2.693v10.405q0 1.783.957 2.853.957 1.04 2.603 1.04 1.675 0 2.632-1.04.988-1.07.988-2.853v-10.405h2.692v10.405q0 2.883-1.735 4.578-1.735 1.664-4.577 1.664m10.8-.297v-16.35h2.333v2.17h.06q.15-1.1.867-1.783.748-.684 1.885-.684 1.077 0 1.825.624.748.625 1.077 1.695h.03q.21-1.07.927-1.695.748-.624 1.885-.624 1.586 0 2.513 1.19.957 1.159.957 3.031v12.426h-2.513V162.6q0-.981-.478-1.546-.479-.595-1.317-.595-.807 0-1.286.565t-.479 1.546v12.485h-2.213V162.6q0-.981-.48-1.546-.478-.595-1.285-.595-.838 0-1.317.565-.478.565-.478 1.546v12.485z" aria-label="lium" style="font-size:25.4px;line-height:0;font-family:&quot;JetBrainsMono Nerd Font&quot;;-inkscape-font-specification:&quot;JetBrainsMono Nerd Font&quot;;letter-spacing:0;fill:#fff;fill-opacity:1;stroke:none;stroke-width:1.05833;stroke-dasharray:none;stroke-opacity:1" transform="matrix(.85272 0 0 .85272 12.41 21.465)"/><path d="M46.236 178.69s6.755-16.196 6.755-24.41-6.755-24.343-6.755-24.343h16.016q6.016 0 10.339 1.803 4.406 1.803 6.779 5.076c3.612 5.279 4.032 11.684 4.032 17.464-.25 5.931-.309 12.115-4.032 17.532q-2.373 3.272-6.78 5.075-4.32 1.803-10.338 1.803zm8.251-5.342h7.765q5.593 0 8.729-2.471c4.9-4.354 5.867-11.238 5.867-16.597-.447-5.367-.678-12.179-5.867-16.53q-3.135-2.47-8.729-2.47h-7.765s4.666 12.543 4.666 19-4.666 19.068-4.666 19.068z" aria-label="D" style="font-size:287.829px;font-family:&quot;JetBrainsMono Nerd Font&quot;;-inkscape-font-specification:&quot;JetBrainsMono Nerd Font&quot;;fill:#fff;fill-opacity:1;stroke:#128195;stroke-width:1.05833;stroke-dasharray:none;stroke-opacity:1" transform="matrix(.85272 0 0 .85272 12.41 21.465)"/><path d="M42.455 178.69s6.755-16.196 6.755-24.41-6.755-24.343-6.755-24.343h16.016q6.016 0 10.339 1.803 4.406 1.803 6.779 5.076c3.612 5.279 4.032 11.684 4.032 17.464-.25 5.931-.309 12.115-4.032 17.532q-2.373 3.272-6.78 5.075-4.32 1.803-10.338 1.803zm8.251-5.342h7.765q5.593 0 8.729-2.471c4.9-4.354 5.867-11.238 5.867-16.597-.447-5.367-.678-12.179-5.867-16.53q-3.135-2.47-8.729-2.47h-7.765s4.666 12.543 4.666 19-4.666 19.068-4.666 19.068z" aria-label="D" style="font-size:287.829px;font-family:&quot;JetBrainsMono Nerd Font&quot;;-inkscape-font-specification:&quot;JetBrainsMono Nerd Font&quot;;display:inline;fill:#fff;fill-opacity:1;stroke:#128195;stroke-width:1.05833;stroke-dasharray:none;stroke-opacity:1" transform="matrix(.85272 0 0 .85272 12.41 21.465)"/></g></svg>