<svg xmlns="http://www.w3.org/2000/svg" width="909.748" height="210"><g fill="none" fill-rule="evenodd"><path fill="#fff" d="M297.565 115.702v42.97h-13.517V51.542h34.487q7.161.147 13.554 2.28t11.216 6.181 7.635 10.007 2.813 13.686-2.813 13.648q-2.812 5.924-7.635 9.97t-11.216 6.181q-6.393 2.133-13.554 2.207zm0-11.184h20.97q4.677-.073 8.622-1.508t6.868-4.084 4.567-6.438 1.644-8.645q0-4.857-1.644-8.756t-4.53-6.622q-2.887-2.722-6.868-4.194t-8.659-1.545h-20.97Zm117.224-26.93q1.9 0 3.946.111 2.046.11 3.909.368t3.434.625q1.57.368 2.594.81l-1.827 13.317a72 72 0 0 0-7.49-1.287 65 65 0 0 0-7.415-.405q-9.5 0-15.381 4.341t-8.658 12.14v51.064h-13.59V79.06h12.859l.658 12.656q4.822-6.549 11.58-10.338 6.759-3.79 15.381-3.79m63.301 82.556q-8.33 0-15.307-2.87t-11.947-8.02-7.745-12.214-2.776-15.378v-3.09q0-9.639 3.068-17.254 3.07-7.616 8.147-12.877 5.079-5.26 11.545-8.056 6.465-2.796 13.262-2.796 8.549 0 14.942 2.98t10.63 8.24 6.321 12.398 2.083 15.452v6.107h-56.481q.219 5.445 2.082 10.227 1.863 4.783 5.115 8.351 3.252 3.57 7.782 5.63t10.01 2.06q7.233 0 12.86-2.944 5.625-2.943 9.352-7.8l8.257 6.476q-1.974 3.016-4.932 5.776-2.96 2.76-6.832 4.893-3.873 2.133-8.768 3.421t-10.668 1.288m-1.753-71.371q-4.092 0-7.746 1.508-3.653 1.508-6.576 4.415t-4.932 7.137-2.813 9.749h42.525v-1.03a30.6 30.6 0 0 0-1.498-7.873q-1.278-3.9-3.763-6.99t-6.247-5.003-8.95-1.913m79.01-28.99V79.06h30.103v10.522h-30.103v43.264q0 4.635 1.169 7.652t3.215 4.82a11.8 11.8 0 0 0 4.713 2.538q2.667.735 5.662.736a41 41 0 0 0 4.53-.258 86 86 0 0 0 4.567-.625q2.229-.368 4.165-.773 1.935-.404 3.178-.699l1.9 9.64q-1.68 1.03-4.092 1.802a46 46 0 0 1-5.26 1.324q-2.85.552-6.029.846a69 69 0 0 1-6.32.295q-5.26 0-9.827-1.509t-7.928-4.782-5.297-8.462-1.937-12.545V89.582h-20.75V79.06h20.75V59.783Zm80.18 0V79.06h30.103v10.522h-30.104v43.264q0 4.635 1.17 7.652 1.168 3.017 3.214 4.82a11.8 11.8 0 0 0 4.713 2.538q2.667.735 5.663.736a41 41 0 0 0 4.53-.258 86 86 0 0 0 4.566-.625q2.229-.368 4.165-.773 1.936-.404 3.179-.699l1.9 9.64q-1.68 1.03-4.092 1.802a46 46 0 0 1-5.261 1.324q-2.85.552-6.028.846a69 69 0 0 1-6.32.295q-5.261 0-9.828-1.509t-7.928-4.782q-3.36-3.275-5.297-8.462-1.935-5.187-1.936-12.545V89.582h-20.751V79.06h20.75V59.783ZM685.82 79.06h40.406v67.84h25.793v11.772H685.82V146.9h26.889V90.906H685.82Zm25.135-20.896q0-3.385 2.01-5.702t6.1-2.318q4.02 0 6.065 2.318t2.046 5.702q0 3.311-2.046 5.518-2.046 2.208-6.064 2.208-4.092 0-6.102-2.208-2.01-2.206-2.009-5.518m87.852 101.98q-8.33 0-15.308-2.87t-11.946-8.02-7.745-12.214q-2.778-7.064-2.777-15.378v-3.09q0-9.639 3.069-17.254t8.147-12.877q5.077-5.26 11.544-8.056t13.262-2.796q8.55 0 14.942 2.98 6.393 2.98 10.631 8.24 4.239 5.261 6.32 12.398 2.083 7.137 2.083 15.452v6.107h-56.48q.218 5.445 2.082 10.227 1.863 4.783 5.114 8.351 3.252 3.57 7.782 5.63t10.01 2.06q7.235 0 12.86-2.944t9.353-7.8l8.256 6.476q-1.973 3.016-4.932 5.776t-6.832 4.893-8.768 3.421-10.667 1.288m-1.754-71.371q-4.092 0-7.745 1.508t-6.576 4.415-4.932 7.137-2.813 9.749h42.525v-1.03a30.6 30.6 0 0 0-1.498-7.873q-1.28-3.9-3.763-6.99-2.485-3.09-6.247-5.003-3.764-1.913-8.951-1.913m98.811-11.184q1.9 0 3.946.11t3.909.368 3.434.625 2.594.81l-1.827 13.317a72 72 0 0 0-7.489-1.287 65 65 0 0 0-7.416-.405q-9.5 0-15.38 4.341-5.883 4.341-8.66 12.14v51.064h-13.59V79.06h12.86l.658 12.656q4.823-6.549 11.58-10.338 6.76-3.79 15.381-3.79"/><g transform="translate(0 200)"><rect width="60" height="10" x="150" fill="#4d616e" opacity=".5" rx="5"/><rect width="70" height="10" x="70" fill="#4d616e" opacity=".5" rx="5"/><rect width="60" height="10" fill="#ea5e5e" rx="5"/></g><g transform="translate(0 180)"><rect width="50" height="10" x="160" fill="#4d616e" opacity=".5" rx="5"/><rect width="20" height="10" x="130" fill="#4d616e" opacity=".5" rx="5"/><rect width="50" height="10" x="70" fill="#4d616e" opacity=".5" rx="5"/><rect width="20" height="10" x="40" fill="#f7b93e" rx="5"/><rect width="30" height="10" fill="#56b3b4" rx="5"/></g><g transform="translate(0 160)"><rect width="100" height="10" x="110" fill="#4d616e" opacity=".5" rx="5"/><rect width="30" height="10" x="70" fill="#4d616e" opacity=".5" rx="5"/><rect width="60" height="10" fill="#bf85bf" rx="5"/></g><g transform="translate(0 140)"><rect width="30" height="10" x="180" fill="#4d616e" opacity=".5" rx="5"/><rect width="30" height="10" x="140" fill="#4d616e" opacity=".5" rx="5"/><rect width="100" height="10" x="30" fill="#f7b93e" rx="5"/><rect width="20" height="10" fill="#bf85bf" rx="5"/></g><g transform="translate(0 120)"><rect width="40" height="10" x="170" fill="#4d616e" opacity=".5" rx="5"/><rect width="40" height="10" x="120" fill="#bf85bf" rx="5"/><rect width="50" height="10" x="60" fill="#ea5e5e" rx="5"/><rect width="50" height="10" fill="#56b3b4" rx="5"/></g><g transform="translate(0 100)"><rect width="30" height="10" x="180" fill="#4d616e" opacity=".5" rx="5"/><rect width="90" height="10" x="80" fill="#56b3b4" rx="5"/><rect width="40" height="10" x="30" fill="#f7b93e" rx="5"/><rect width="20" height="10" fill="#ea5e5e" rx="5"/></g><g transform="translate(0 80)"><rect width="20" height="10" x="190" fill="#4d616e" opacity=".5" rx="5"/><rect width="60" height="10" x="120" fill="#f7b93e" rx="5"/><rect width="40" height="10" x="70" fill="#4d616e" opacity=".5" rx="5"/><rect width="60" height="10" fill="#bf85bf" rx="5"/></g><g transform="translate(0 60)"><rect width="20" height="10" x="190" fill="#4d616e" opacity=".5" rx="5"/><rect width="60" height="10" x="120" fill="#ea5e5e" rx="5"/><rect width="40" height="10" x="70" fill="#4d616e" opacity=".5" rx="5"/><rect width="20" height="10" x="40" fill="#56b3b4" rx="5"/><rect width="30" height="10" fill="#f7b93e" rx="5"/></g><g transform="translate(0 40)"><rect width="30" height="10" x="180" fill="#4d616e" opacity=".5" rx="5"/><rect width="20" height="10" x="150" fill="#56b3b4" rx="5"/><rect width="50" height="10" x="90" fill="#bf85bf" rx="5"/><rect width="80" height="10" fill="#56b3b4" rx="5"/></g><g transform="translate(0 20)"><rect width="40" height="10" x="170" fill="#4d616e" opacity=".5" rx="5"/><rect width="110" height="10" x="50" fill="#f7b93e" rx="5"/><rect width="40" height="10" fill="#ea5e5e" rx="5"/></g><g><rect width="70" height="10" x="140" fill="#4d616e" opacity=".5" rx="5"/><rect width="130" height="10" fill="#56b3b4" rx="5"/></g></g></svg>