<svg xmlns="http://www.w3.org/2000/svg" xml:space="preserve" viewBox="0 0 750 500"><path d="M.001.002h750v500h-750z" style="fill:none;fill-opacity:1"/><path d="M610.087 349.523H139.913c-53.541 0-96.945-43.404-96.945-96.945s43.404-96.945 96.945-96.945h470.175c53.541 0 96.945 43.404 96.945 96.945-.001 53.542-43.404 96.945-96.946 96.945" style="fill:#b4dfd5"/><path d="M403.96 106.541c15.987 6.822 29.404 19.434 37.718 34.669 10.098 18.503 3.407 42.793 15.428 59.238 9.896 13.536 28.887 14.499 43.638 18.826 16.632 4.879 32.063 13.484 45.159 25.003 10.96 9.64 19.911 22.026 23.455 36.186 4.306 17.204-.022 36.346-11.312 50.024-28.126 34.075-84.03 22.425-114.611-1.674-17.486-13.78-32.365-26.332-55.793-27.941-40.953-2.814-64.372 26.852-90.218 53.213-39.705 40.497-119.92 53.231-156.144 1.474-17.039-24.345-18.713-58.015-5.992-84.614 15.24-31.867 53.238-37.028 85.254-35.332 22.781 1.207 48.493 1.204 64.633-14.918 24.222-24.195 11.965-61.118 28.005-88.423 15.298-26.043 54.453-36.432 81.994-28.809a69.5 69.5 0 0 1 8.786 3.078" style="fill:#fdd17a"/><path d="M403.385 132.368c11.949 5.63 21.783 15.583 27.67 27.386 7.149 14.335 1.385 32.592 10.053 45.418 7.134 10.557 21.53 11.821 32.61 15.521 12.494 4.172 23.97 11.14 33.591 20.255 8.052 7.628 14.502 17.286 16.796 28.138 2.787 13.186-1.037 27.601-9.995 37.67-22.315 25.087-64.441 14.671-86.988-4.489-12.892-10.956-23.838-20.905-41.585-22.785-31.021-3.286-49.638 18.584-70.005 37.877-31.289 29.639-92.561 37.056-118.616-3.264-12.256-18.966-12.581-44.582-2.175-64.424 12.468-23.772 41.468-26.624 65.734-24.437 17.266 1.556 36.792 2.276 49.501-9.514 19.074-17.693 10.802-46.077 23.749-66.362 12.349-19.347 42.375-26.138 63.075-19.575a53 53 0 0 1 6.585 2.585" style="fill:none;stroke:#1b4e61;stroke-linecap:round;stroke-linejoin:round;stroke-dasharray:2.0054,5.0136"/><path d="M596.177 163.407c.894-6.715-6.494-12.061-13.268-12.075-1.292-.003-2.732.075-3.703-.777-.996-.875-1.08-2.362-1.207-3.681-.89-9.258-7.948-17.611-16.928-20.035s-19.282 1.245-24.709 8.798c-2.013 2.801-4.095 6.473-7.543 6.404-2.234-.045-4.028-1.735-5.891-2.968-7.368-4.874-18.635-2.13-22.938 5.585-1.253 2.247-2.232 5.048-4.657 5.906-1.122.397-2.353.277-3.535.418-8.192.975-9.463 11.385-1.542 13.068 8.777 1.864 21.648-.494 30.815-.275 25.032.599 50.081.477 75.106-.368" style="fill:#42b093"/><path d="M678.44 194.061c.62-4.656-4.502-8.362-9.199-8.372-.896-.002-1.895.052-2.567-.539-.69-.607-.749-1.637-.837-2.552-.617-6.419-5.51-12.21-11.737-13.891-6.226-1.68-13.368.863-17.131 6.1-1.395 1.942-2.839 4.488-5.23 4.44-1.549-.031-2.793-1.203-4.085-2.057-5.108-3.379-12.92-1.477-15.903 3.872-.869 1.558-1.547 3.5-3.229 4.094-.778.275-1.631.192-2.451.29-5.68.676-6.561 7.893-1.069 9.06 6.085 1.292 15.009-.343 21.365-.19 17.356.415 34.723.331 52.073-.255" style="fill:#1b4e61"/><linearGradient id="a" x1="211.143" x2="553.754" y1="257.339" y2="257.339" gradientUnits="userSpaceOnUse"><stop offset="0" style="stop-color:#fff;stop-opacity:0"/><stop offset=".293" style="stop-color:#f9d4d3;stop-opacity:.293"/><stop offset=".953" style="stop-color:#e96864;stop-opacity:.9533"/><stop offset="1" style="stop-color:#e8605c"/></linearGradient><path d="M514.985 337.637H211.143V177.041h370.984z" style="fill:url(#a)"/><path d="M589.233 361.237c.789-.014 1.644-.051 2.251-.556.63-.524.811-1.402.953-2.209.382-2.173.997-4.45 1.045-6.63-3.024-1.427-8.751-1.95-10.798 1.45-.93 1.545-.418 5.712-.321 7.455.109 1.955 3.469.55 6.87.49M480.492 357.289c-.335.179-.717.411-.754.788-.016.168.042.332.101.49a22.1 22.1 0 0 0 3.457 6.063c.64.796 1.452 1.604 2.472 1.637 1.016.032 1.869-.712 2.607-1.41l5.77-5.453c.817-.772 1.688-1.653 1.773-2.774.2-2.634-4.25-5.894-6.678-5.568-2.896.39-6.056 4.821-8.748 6.227" style="fill:#e27e5a"/><path d="m587.147 189.874 2.864.973 2.063 4.358-.023 12.082-7.381 32.695-4.246 1.849-1.543-5.587s4.357-46.976 8.266-46.37" style="fill:#fff"/><path d="M589.545 190.325a31.1 31.1 0 0 0-8.499-11.937c-.991-.857-2.144-1.897-1.987-3.198.094-.774.643-1.4 1.047-2.068.687-1.134.983-2.5.827-3.817-.038-.321-.099-.662.039-.953.146-.309.477-.48.794-.606 2.229-.881 4.796-.516 6.987.456s4.079 2.502 5.94 4.013c1.825 1.483 3.673 2.997 5.159 4.833.554.685 1.938 2.177 1.942 3.111.005 1.26-.813 1.04-1.909 1.368-4.474 1.342-7.639 5.211-10.34 8.798" style="fill:#e27e5a"/><path d="M581.149 165.366c-.395 1.397.028 2.995 1.064 4.013.482.473 1.119.833 1.794.819.837-.017 1.66-.596 2.457-.34.837.269 1.139 1.297 1.171 2.176s-.055 1.839.456 2.555c.282.396.712.658 1.13.907a261 261 0 0 0 11.554 6.492c.46.244.963.493 1.477.408.981-.162 1.353-1.359 1.485-2.346.315-2.36.415-4.748.299-7.126-.05-1.013-.092-2.159.614-2.886.255-.263.591-.447.8-.748.477-.688.083-1.655-.491-2.264s-1.326-1.069-1.735-1.799c-.69-1.233-.181-2.754-.138-4.166.097-3.195-2.574-6.134-5.725-6.668-3.152-.533-6.467 1.152-8.203 3.837-1.35 2.088-2.001 3.329-4.445 4.108-1.625.518-3.049 1.208-3.564 3.028" style="fill:#f29d7e"/><path d="M579.395 175.625c1.154-1.005 1.603-2.604 1.723-4.13s-.029-3.071.199-4.584c.228-1.514.925-3.069 2.265-3.807 1.341-.739 3.366-.255 3.833 1.203.201.629.429 1.586 1.063 1.404 1.195-1.82-.353-4.592.978-6.316.349-.453.853-.756 1.348-1.042a60 60 0 0 1 4.517-2.357c.744-.349 1.52-.689 2.341-.716 1.382-.046 2.667.821 3.485 1.936s1.251 2.458 1.672 3.776c1.234-.858 2.159-2.211 2.32-3.705.16-1.494-.528-3.094-1.824-3.855-.448-.263-.954-.426-1.372-.734-1.405-1.037-1.283-3.199-2.279-4.633-1.273-1.833-4.115-1.93-6.024-.775-.9.545-1.656 1.301-2.542 1.869-2.289 1.466-5.173 1.528-7.779 2.301-3.48 1.033-6.556 3.463-8.217 6.69s-1.838 7.219-.317 10.514c.596 1.292 1.461 2.608 1.223 4.012-.202 1.19-1.252 2.463-.085 3.412.93.756 2.681.226 3.472-.463" style="fill:#1b4e61"/><path d="M558.977 281.71c-.476 2.949-1.856 5.649-3.081 8.365-3.077 6.872-5.272 14.109-8.531 20.894a77 77 0 0 1-5.133 9.022c-11.421 17.298-29.193 30.085-46.36 42.179-.581.419-1.269.845-1.963.674-.493-.119-.869-.507-1.207-.888l-9.148-10.217c-.482-.527-.978-1.122-1.016-1.829-.06-1.016.83-1.813 1.646-2.425 3.916-2.975 7.958-5.782 11.779-8.881 5.216-4.197 10.011-8.896 14.789-13.573 5.196-5.073 10.452-10.254 13.865-16.666 2.985-5.608 4.395-11.909 5.761-18.113.906-4.044 1.55-8.164 2.191-12.271.732-4.803 1.452-9.609 2.532-14.294 1.759-7.662 13.302-1.182 17.31 2.162 4.601 3.839 7.533 9.953 6.566 15.861" style="fill:#e8605c"/><path d="M558.977 281.71c-.476 2.949-1.856 5.649-3.081 8.365-3.077 6.872-5.272 14.109-8.531 20.894a77 77 0 0 1-5.133 9.022 1.8 1.8 0 0 1-.716-.901c-.297-.809-.037-1.698.211-2.523 2.127-7.302 2.258-15.297-.433-22.41-2.145-5.662-6-10.801-8.727-16.176.732-4.803 1.452-9.609 2.532-14.294 1.759-7.662 13.302-1.182 17.31 2.162 4.603 3.839 7.535 9.953 6.568 15.861" style="fill:#b94a5b"/><path d="M596.692 357.26a164 164 0 0 1-14.482-1.114c-1.112-.13-2.373-.381-2.903-1.352-.385-.693-.265-1.543-.133-2.311 1.963-11.971 3.935-23.926 5.896-35.883.748-4.536 1.329-9.725-1.647-13.218-1.094-1.276-2.538-2.169-3.971-3.046-8.044-4.923-16.127-9.853-24.655-13.889-2.719-1.278-5.537-2.522-8.214-3.951-3.469-1.855-6.69-4.047-9.139-7.11-3.433-4.293-5.7-12.884-4.81-19.997.399-3.241 1.453-6.174 3.362-8.246 2.641-2.872 9.122-2.696 12.711-3.024a69.3 69.3 0 0 1 18.834.876c1.085.204 2.272.494 2.934 1.398.621.844.588 2 .628 3.051.028.692.1 1.366.227 2.024.066.422.16.836.253 1.25 1.284 5.394 5.06 10.108 8.667 14.46 7.112 8.539 14.21 17.089 21.31 25.626 1.079 1.286 2.164 2.614 2.81 4.162.822 1.952.875 4.128.86 6.239-.112 18.278-4.342 36.256-8.538 54.055" style="fill:#e8605c"/><path d="M571.582 252.718c-3.648 2.537-8.453 3.429-12.741 2.199-2.12-.597-4.073-1.665-6.125-2.487-4.965-1.978-10.716-2.453-15.598-.307a12.7 12.7 0 0 0-4.485 3.265c.399-3.241 1.453-6.174 3.362-8.246 2.641-2.872 9.122-2.696 12.711-3.024a69.3 69.3 0 0 1 18.834.876c1.085.204 2.272.494 2.934 1.398.621.844.588 2 .628 3.051.028.692.1 1.366.227 2.024.065.423.159.837.253 1.251" style="fill:#b94a5b"/><path d="M570.786 175.235c-2.923-1.182-5.364-3.574-8.473-4.101-4.064-.689-7.844 1.966-11.249 4.288-18.495 12.611-41.187 19.424-56.588 35.67a100.5 100.5 0 0 0 9.344 10.699c.257.256.539.522.896.584.577.1 1.086-.358 1.498-.776 10.076-10.213 23.475-17.094 37.646-19.334-3.619 7.672-7.268 15.436-8.967 23.746-.833 4.077-1.189 8.255-2.319 12.26-1.818 6.442-5.635 12.481-5.58 19.174 4.43-5.039 10.066-9.453 16.693-10.502 10.324-1.635 20.753 5.138 30.972 2.941 3.673-.789 7.51-3.433 7.54-7.191.009-1.166-.355-2.296-.628-3.43-3.339-13.903 7.114-28.086 4.806-42.197-.482-2.945-1.509-5.768-2.531-8.571-1.099-3.015-1.961-8.598-4.032-11.008-1.887-2.197-6.243-1.126-9.028-2.252" style="fill:#e8605c"/><path d="M590.024 198.975c-.207 1.607.001 3.235.054 4.854.446 13.629-10.031 26.197-8.228 39.713.062.464.146.946.422 1.325.286.393.739.623 1.182.822 3.649 1.637 7.7 2.094 11.676 2.53l17.492 1.919c.527.058 1.128.093 1.515-.27.275-.258.365-.654.438-1.024a76 76 0 0 0 1.264-9.602c.032-.472.041-.999-.274-1.352-.235-.263-.598-.363-.941-.446a34.3 34.3 0 0 0-11.64-.766c-2.483.263-5.068.787-7.418-.054-2.751-.985-4.527-3.598-6.11-6.054-.577-.894-1.172-1.841-1.24-2.903-.082-1.28.61-2.464 1.247-3.577 2.848-4.977 5.093-10.564 4.708-16.285-.102-1.526-.391-3.041-.378-4.57.017-1.888 1.053-5.38-.124-7.061-1.798-2.566-3.418 1.036-3.645 2.801" style="fill:#e8605c"/><path d="M488.237 218.294c-.764.844-1.551 1.682-2.13 2.663-1.144 1.937-1.385 4.258-1.6 6.497-.076.785-.044 1.773.67 2.109.216.102.48.13.637.31.358.408-.187 1.039-.071 1.569.176.805 1.6.697 1.859 1.48.117.355-.067.776.111 1.105.215.398.794.387 1.219.232s.861-.403 1.3-.293c.253.064.474.243.735.263.517.038.841-.529 1.051-1.003a21.85 21.85 0 0 1 7.714-9.202c.362-.244.908-.456 1.182-.115.119.148.133.352.133.541a6.1 6.1 0 0 1-.543 2.496c-.306.671-.741 1.305-.833 2.037s.34 1.609 1.076 1.649c.605.033 1.086-.49 1.422-.994 1.199-1.798 1.802-3.918 2.388-5.998.17-.603.341-1.228.254-1.848-.089-.637-.441-1.202-.787-1.743q-.932-1.46-1.889-2.902c-.542-.817-1.117-1.657-1.956-2.163-.643-.388-1.393-.551-2.128-.708-1.409-.301-4.492-1.612-5.762-.863-.622.367-1.252 1.644-1.722 2.206a95 95 0 0 1-2.33 2.675" style="fill:#f29d7e"/><path d="M582.185 178.864c3.056 3.358 6.167 6.858 7.661 11.146.094.27.183.551.165.837-.037.61-.533 1.079-1 1.473a54 54 0 0 1-3.715 2.868 396 396 0 0 0-2.39-7.841c-.428-1.354-.865-2.709-1.459-3.999-.286-.621-.61-1.232-.771-1.897-.118-.486-.145-.99-.253-1.478-.234-1.059-.873-1.866-1.339-2.811.988-.58 2.521 1.065 3.101 1.702" style="fill:#fff"/><path d="M591.236 188.062c-.246 1.305.085 2.644.467 3.916s.824 2.556.804 3.883a11.5 11.5 0 0 1-2.157-.751.4.4 0 0 1-.135-.085.4.4 0 0 1-.084-.194c-.175-.795.025-1.636-.141-2.433-.145-.692-.714-1.549-.393-2.257.342-.754 1.055-1.504 1.639-2.079" style="fill:#fff"/><path d="M586.408 194.396c-.171.17-.357.397-.28.627.039.115.137.199.231.276l1.549 1.279c.197.162.411.332.665.355.286.026.55-.139.79-.297l1.817-1.199c.126-.083.263-.184.284-.333a.5.5 0 0 0-.037-.227c-.233-.715-.912-3.417-1.785-3.531-.525-.068-1.248 1.157-1.585 1.47a60 60 0 0 0-1.649 1.58" style="fill:#fdd17a"/><path d="M588.4 201.062c-.447 1.684-1.483 3.139-2.341 4.656-1.834 3.244-2.89 6.867-3.754 10.492-.878 3.687-1.574 7.425-1.871 11.203-.103 1.314-.154 2.661.219 3.924.373 1.264 1.242 2.448 2.486 2.882a12 12 0 0 1 .492-4.306c.723-2.374 2.16-4.459 3.171-6.727.714-1.602 1.213-3.29 1.71-4.972 1.01-3.421 2.02-6.845 2.844-10.316.296-1.245.568-2.515.492-3.792-.064-1.074-.373-2.118-.501-3.187-.239-1.987.064-4.267-1.292-5.739-.073-.08-.157-.159-.264-.181-.12-.024-.24.03-.348.086-.32.164-1.086.482-1.19.849-.109.384.243 1.184.3 1.591.164 1.175.153 2.385-.153 3.537" style="fill:#fdd17a"/><path d="m639.904 220.641 36.864 16.879-19.683 48.63-37.874-16.155z" style="fill:#527480"/><path d="m639.904 220.641-5.554.616-18.645 44.856 3.506 3.882z" style="fill:#76a9b7"/><path d="M467.997 357.393a22.8 22.8 0 0 0 1.627 9.361c.154.382.358.798.746.936.274.097.576.029.866.017 1.43-.058 2.573 1.301 2.892 2.697.319 1.395.054 2.847.011 4.278-.124 4.073 1.576 8.033 3.99 11.315s5.517 5.984 8.593 8.656c.838-.868.959-2.229.676-3.402-.284-1.173-.909-2.229-1.41-3.327-2.301-5.044-1.866-11.242 1.118-15.914.989-1.549 2.296-3.153 2.063-4.976-.107-.839-.539-1.598-.978-2.321-1.509-2.486-4.635-8.642-7.697-9.356-.852-.198-12.524 2.732-12.497 2.036M574.437 372.701a22.8 22.8 0 0 0 8.737 3.733c.404.079.864.135 1.191-.116.231-.177.338-.467.486-.717.73-1.231 2.493-1.45 3.836-.957 1.344.492 2.418 1.505 3.594 2.32 3.348 2.322 7.595 3.053 11.663 2.816s8.023-1.368 11.939-2.493c-.272-1.176-1.347-2.019-2.486-2.419-1.138-.401-2.364-.452-3.558-.63-5.484-.817-10.444-4.558-12.738-9.605-.76-1.673-1.395-3.642-3.05-4.44-.762-.367-1.633-.418-2.479-.443-2.907-.088-9.772-.819-12.038 1.361-.629.605-4.528 11.991-5.097 11.59" style="fill:#1b4e61"/><path d="M617.515 236.169c.953-1.3 2.657-1.836 4.268-1.908s3.215.238 4.827.253c.667.006 1.367-.031 1.964.267s1.014 1.082.663 1.648c-.495.798-1.747.372-2.625.703-.884.333-1.252 1.419-1.184 2.361s.448 1.836.573 2.772c.125.937-.092 2.031-.9 2.519-.164.099-.358.181-.443.352-.07.141-.048.308-.053.466-.025.794-.809 1.401-1.598 1.49s-1.567-.215-2.285-.554c-.238-.112-.497-.232-.753-.175-.194.043-.35.18-.508.299-1.182.887-2.977.837-4.107-.116.171-2.158-.042-4.258-.047-6.406-.006-1.628 1.24-2.651 2.208-3.971" style="fill:#f29d7e"/><path d="M625.808 250.972a.7.7 0 0 1-.3-.065l-5.34-2.432 5.066-12.236 5.315 2.174a.726.726 0 0 1-.549 1.343l-3.978-1.627-3.978 9.607 4.066 1.851a.725.725 0 0 1-.302 1.385" style="fill:#7495b6"/><linearGradient id="b" x1="293.541" x2="553.721" y1="209.638" y2="209.638" gradientUnits="userSpaceOnUse"><stop offset="0" style="stop-color:#fff;stop-opacity:0"/><stop offset=".335" style="stop-color:#f9d4d3;stop-opacity:.3355"/><stop offset=".999" style="stop-color:#ec7772"/></linearGradient><path d="M293.541 205.041h281.726v9.194H293.541z" style="fill:url(#b)"/><linearGradient id="c" x1="228.02" x2="548.71" y1="313.98" y2="313.98" gradientUnits="userSpaceOnUse"><stop offset="0" style="stop-color:#fff;stop-opacity:0"/><stop offset=".335" style="stop-color:#f9d4d3;stop-opacity:.3355"/><stop offset=".999" style="stop-color:#ec7772"/></linearGradient><path d="M228.02 309.383h347.247v9.194H228.02z" style="fill:url(#c)"/><linearGradient id="d" x1="269.969" x2="551.918" y1="240.773" y2="240.773" gradientUnits="userSpaceOnUse"><stop offset="0" style="stop-color:#fff;stop-opacity:0"/><stop offset=".297" style="stop-color:#fef0d3;stop-opacity:.1772"/><stop offset=".839" style="stop-color:#fdd17a;stop-opacity:.5"/><stop offset="1" style="stop-color:#fff;stop-opacity:0"/></linearGradient><path d="M269.969 229.658h305.298v22.23H269.969z" style="fill:url(#d)"/><linearGradient id="e" x1="217.462" x2="547.902" y1="280.636" y2="280.636" gradientUnits="userSpaceOnUse"><stop offset="0" style="stop-color:#fff;stop-opacity:0"/><stop offset=".297" style="stop-color:#fef0d3;stop-opacity:.1772"/><stop offset=".839" style="stop-color:#fdd17a;stop-opacity:.5"/><stop offset="1" style="stop-color:#fff;stop-opacity:0"/></linearGradient><path d="M217.462 260.722h357.805v39.827H217.462z" style="fill:url(#e)"/><path d="M225.943 377.965c-.26.378-.732.496-1.18.59a109 109 0 0 1-10.386 1.699c-1.062.118-2.219.189-3.092-.401-.944-.637-1.275-1.865-1.534-2.974-1.298-5.547-2.597-11.094-3.494-16.736-1.534-9.843-1.747-19.875-2.762-29.813a193.1 193.1 0 0 0-12.534-51.695c-.685-1.723-2.125-3.824-3.895-3.21-1.062.401-1.534 1.629-1.888 2.715-4.863 15.508-9.749 31.088-12.77 47.068-3.399 17.869-4.438 36.068-6.751 54.103-.094.708-.236 1.511-.803 1.983-.496.378-1.18.425-1.794.425l-10.363.213c-.59.024-1.275 0-1.676-.425-.401-.401-.425-1.039-.425-1.582-.071-36.186 7.837-71.948 9.489-108.087.047-.637.071-1.298.094-1.959.26-6.35-2.195-22.519 4.981-26.319 1.322-.708 2.856-.826 4.32-.921l38.57-2.691c1.228-.071 2.573-.142 3.635.519 1.322.85 1.77 2.549 2.077 4.083.094.449.189.921.26 1.369 2.337 12.204 3.376 24.643 4.39 37.036l7.719 93.759c.025.425.072.897-.188 1.251" style="fill:#547989"/><path d="M179.374 169.764c2.347 2.263 5.235 4.703 8.444 4.129 4.007-.717 5.662-5.484 8.711-8.18a6.5 6.5 0 0 1 2.968 3.653c.27.849.363 1.748.657 2.589.433 1.238 1.277 2.282 2.101 3.303 6.826 8.456 13.529 17.521 15.866 28.135 2.327 10.569.082 21.547-2.161 32.134-.352 1.663-.802 3.482-2.183 4.473-.937.672-2.135.831-3.28.967a550 550 0 0 1-43.475 3.402 116.8 116.8 0 0 0 6.541-43.504c-.227-5.56-.8-11.29.43-16.777.597-2.66 2.006-4.766 2.923-7.267.883-2.403 1.078-4.799 2.458-7.057" style="fill:#e4f3f7"/><path d="M187.977 181.367c.161.118.339.242.538.232.311-.014.505-.331.644-.609.776-1.555 2.287-3.59 1.383-5.383-.579-1.148-1.94-1.714-3.18-1.604-1.654.148-2.54 1.382-3.082 2.848-.809 2.187 2.152 3.38 3.697 4.516" style="fill:#e8605c"/><path d="M183.199 187.646c-.337 1.906-.437 3.845-.536 5.778l-1.677 32.666c-.062 1.209-.12 2.451.259 3.6.31.939.894 1.759 1.469 2.563l2.289 3.198c.256.358.559.746.994.812.514.078.964-.324 1.329-.695 1.913-1.948 3.905-4.033 4.542-6.688.253-1.056.277-2.151.292-3.237a281 281 0 0 0-3.095-45.815c-.506-3.36-2.481-1.443-3.379.357-1.167 2.339-2.032 4.887-2.487 7.461" style="fill:#e8605c"/><path d="m178.929 170.183 5.72 3.53c.653.403 1.323.813 2.073.975 2.334.505 4.409-1.454 5.996-3.239l3.368-3.79c.243-.274.49-.554.634-.891.184-.431.182-.916.177-1.386l-.077-7.176c-3.795.715-7.606 1.431-11.464 1.576-1.968.074-5.927-.461-6.932 1.704-.27.579.26 8.545.505 8.697" style="fill:#e27e5a"/><path d="M173.483 158.192c.527 1.152 2.182 1.788 3.129.948a26.6 26.6 0 0 0 3.61 6.453c1.394 1.834 3.232 3.588 5.525 3.806 1.929.184 3.826-.792 5.186-2.171 1.361-1.379 2.271-3.131 3.127-4.868.462-.937.939-1.91 1.751-2.566.862-.696 2.148-.09 2.774-.556 1.085-.808 1.429-2.963.65-4.072-.287-.408-2.995-1.512-2.854-1.009-1.024-3.667 1.158-7.946-.749-11.241-1.206-2.085-3.685-3.04-6.024-3.619-2.841-.702-6.022-1.028-8.54.463-2.604 1.542-3.824 4.6-4.868 7.441-.386 1.05-.78 2.141-.946 3.251-.12.802.37 2.776.109 3.357-.425.946-1.218.335-1.695 1.088-.552.872-.606 2.375-.185 3.295" style="fill:#f29d7e"/><path d="M214.023 245.919c-.472.071-.968.118-1.464.189-11.802 1.487-24.29 2.62-33.991 9.536-3.47 2.478-11.448 12.133-18.483 16.193.047-.637.071-1.298.094-1.959.26-6.35-2.195-22.519 4.981-26.319 1.322-.708 2.856-.826 4.32-.921l38.57-2.691c1.228-.071 2.573-.142 3.635.519 1.322.85 1.77 2.549 2.077 4.083.096.45.19.922.261 1.37" style="fill:#10404f"/><path d="M121.534 196.055c-.11-.38.018-1.469-.251-1.76-.293-.317-.707-.518-1.13-.598-6.888-1.302-12.811-1.014-19.759-.816-.148.004-.304.012-.432.088-.347.208-.255.735-.07 1.094 1.443 2.794 4.5.597 6.696 2.848.602.617 1.075 1.368 1.766 1.883 2.124 1.585 5.598.501 7.422 2.423.666.702.954 1.668 1.362 2.546 1.165 2.509 3.495 4.447 6.175 5.134l1.275-4.043c.567-1.799-.616-1.905-1.396-3.13-.929-1.459-1.176-4.002-1.658-5.669M240.712 148.419c-1.304-.979-3.066-1.003-4.697-.986l-5.255.053c-1.487.015-2.365-.771-2.598-2.295-1.075-7.036 8.112-9.814 13.256-7.61 2.625 1.125 4.648 3.415 6.26 5.708 2.016 2.868 5.146 4.789 5.551 8.537.255 2.367-.413 4.68-.404 7.041 0-.018-5.878-.084-6.398-.097-1.705-.045-2.351-.055-2.776-1.73-.688-2.712-.463-6.763-2.939-8.621" style="fill:#f29d7e"/><path d="M176.016 152.582a26.8 26.8 0 0 1 1.293-7.377c.2-.617.452-1.266.984-1.637.847-.592 1.994-.246 2.996.005 3.253.814 6.676.367 9.982-.197 1.016-.174 2.128-.342 3.021.173 1.504.867 1.461 3.008 1.285 4.734-.209 2.041-.322 4.176.465 6.071l.691-.054c1.924-2.387 2.047-5.735 1.776-8.79-.268-3.027-1.012-6.324-3.451-8.137-1.318-.979-2.964-1.387-4.573-1.713-2.322-.47-4.869-.785-6.946.353-1.171.641-2.092 1.699-3.318 2.227-1.198.515-2.578.474-3.774.992-1.339.578-2.31 1.808-2.885 3.148s-.804 2.799-1.027 4.24c-.237 1.53-.475 3.078-.34 4.621.094 1.078.599 3.716 1.743 4.248 1.688.786 2.043-1.851 2.078-2.907M144.663 386.54c-2.634 2.284-5.398 4.638-8.774 5.513-.438.635.029 1.569.728 1.896.698.327 1.512.225 2.275.117l13.01-1.846c1.519-.215 3.07-.441 4.435-1.14 1.977-1.013 3.517-2.988 5.715-3.306.909-.132 1.968-.004 2.611-.66.348-.354.481-.862.583-1.348.34-1.625.48-3.292.415-4.951-.012-.318-11.743.079-12.936.327-3.333.693-5.551 3.221-8.062 5.398M212.43 387.852c.934 1.257 2.98.306 4.463.808.472.16.875.468 1.286.749 4.788 3.274 11.052 3.088 16.844 2.778.946-.05 2.104-.252 2.406-1.15.232-.687-.218-1.447-.825-1.844-.607-.396-1.342-.529-2.041-.725-3.835-1.078-6.922-4.463-7.642-8.382-.093-.503-.157-1.033-.449-1.453-.626-.9-1.939-.882-3.03-.77-2.786.289-7.957-.214-10.123 1.938-.919.915-2.131 8.051-.889 8.051" style="fill:#1b4e61"/><path d="M255.875 179.519c-.142.803-.331 1.605-.755 2.313-.519.826-1.322 1.416-2.125 2.006-2.785 1.983-5.57 3.989-8.71 5.335-5.358 2.337-11.59 2.62-17.161.779-1.959 3.116-.803 7.2.472 10.646a425 425 0 0 0 18.671 43.763c.26.519.519 1.086.401 1.652-.118.59-.614 1.015-1.11 1.416-.236.189-.472.354-.708.543-6.822 5.287-14.281 9.725-21.693 14.139-1.912 1.133-4.438 2.266-6.208.921a51.8 51.8 0 0 0-5.807-16.382c-.472-.803-.944-1.629-1.062-2.573-.165-1.298.425-2.573.968-3.753 3.824-8.285 6.137-17.303 6.208-26.39a54 54 0 0 0-.614-8.474c-.944-6.208-3.045-12.227-6.326-17.586-3.092-5.004-11.708-11.968-11.307-18.318.378-6.043 14.068-3.399 18.223-3.399 1.44 0 3.045.071 4.06 1.086.897.897 1.11 2.36 2.148 3.092.519.378 1.204.496 1.841.614 5.642.968 11.33 1.629 17.043 1.912a117 117 0 0 0-1.204-15.721 59 59 0 0 1 13.691.968c.519.094 1.086.212 1.393.637.236.283.283.661.33 1.039a60.9 60.9 0 0 1-.659 19.735" style="fill:#547989"/><path d="M244.851 247.973c-6.822 5.287-14.281 9.725-21.693 14.139-1.912 1.133-4.438 2.266-6.208.921a51.8 51.8 0 0 0-5.807-16.382c-.472-.803-.944-1.629-1.062-2.573-.165-1.298.425-2.573.968-3.753 3.824-8.285 6.137-17.303 6.208-26.39a54 54 0 0 0-.614-8.474c1.912 4.225 4.603 8.096 7.199 11.897 6.822 9.914 13.644 19.852 20.465 29.766.19.282.379.542.544.849" style="fill:#10404f"/><path d="M160.854 185.467c-2.207.608-4.611 1.144-6.129 2.857-2.077 2.343-1.693 5.872-1.714 9.003a27.8 27.8 0 0 1-1.382 8.465c-.558 1.7-1.368 3.451-2.894 4.387-2.732 1.676-6.222.023-8.978-1.615l-15.528-9.236-4.608 11.342 17.961 10.189c3.015 1.71 6.112 3.45 9.534 4.002s7.292-.325 9.424-3.058c1.216-1.56 1.743-3.528 2.503-5.354.315-.757.93-1.63 1.727-1.442.578.136.87.77 1.057 1.334 5.811 17.532-10.663 36.423-5.727 54.222 1.639.273 2.821-1.485 3.518-2.993 10.326-22.375 15.394-47.156 14.683-71.788-.137-4.742-.439-9.717 1.621-13.99 1.076-2.232 3.338-5.319 1.82-7.76-2.485 1.779-4.223 5.085-7.018 7.012-2.979 2.052-6.394 3.466-9.87 4.423" style="fill:#547989"/><path d="M254.813 158.109v-8.871l-12.815 5.276.613 3.061z" style="fill:#e4f3f7"/><path d="M71.521 146.385h68.651v44.81H71.521z" style="fill:#527480"/><path d="M74.076 150.649h63.547v36.283H74.076z" style="fill:#faf9dd"/><path d="M71.509 189.85h68.65v3.579h-68.65z" style="fill:#0b3a47"/><path d="m83.604 150.649-9.528 9.528v9.977l19.505-19.505zm25.538 0-35.065 35.065v1.218h30.903l32.644-32.643v-3.64zm4.437 36.283h13.284l10.76-10.76v-13.283z" style="fill:#faf9dd"/><circle cx="364.448" cy="217.858" r="51.971" style="fill:#d35353" transform="rotate(-76.621 364.439 217.849)"/><circle cx="364.448" cy="217.858" r="45.563" style="fill:#faf9dd" transform="rotate(-22.839 364.387 217.855)"/><path d="M364.448 195.928a.61.61 0 0 1-.61-.61v-16.846a.61.61 0 1 1 1.22 0v16.846a.61.61 0 0 1-.61.61M353.179 198.948a.61.61 0 0 1-.529-.305l-8.422-14.588a.61.61 0 1 1 1.057-.61l8.422 14.588a.61.61 0 0 1-.528.915M344.927 207.198a.6.6 0 0 1-.304-.081l-14.588-8.423a.609.609 0 1 1 .611-1.056l14.588 8.422a.61.61 0 0 1-.307 1.138M341.908 218.469h-16.846a.61.61 0 1 1 0-1.22h16.846a.61.61 0 1 1 0 1.22M330.34 238.162a.611.611 0 0 1-.306-1.139l14.588-8.423a.614.614 0 0 1 .834.224.61.61 0 0 1-.223.834l-14.588 8.423a.6.6 0 0 1-.305.081M344.755 252.578a.61.61 0 0 1-.527-.915l8.422-14.59a.61.61 0 1 1 1.057.61l-8.422 14.59a.61.61 0 0 1-.53.305M364.448 257.855a.61.61 0 0 1-.61-.61v-16.846a.61.61 0 1 1 1.22 0v16.846a.61.61 0 0 1-.61.61M384.141 252.578a.61.61 0 0 1-.529-.305l-8.422-14.59a.61.61 0 0 1 .224-.834.616.616 0 0 1 .834.224l8.422 14.59a.61.61 0 0 1-.529.915M398.557 238.162a.6.6 0 0 1-.305-.081l-14.588-8.423a.61.61 0 0 1-.224-.834.617.617 0 0 1 .834-.224l14.588 8.423a.612.612 0 0 1-.305 1.139M403.833 218.469h-16.845a.61.61 0 1 1 0-1.22h16.845a.61.61 0 1 1 0 1.22M383.969 207.198a.61.61 0 0 1-.305-1.139l14.588-8.422a.61.61 0 1 1 .61 1.056l-14.588 8.423a.6.6 0 0 1-.305.082M375.719 198.948a.61.61 0 0 1-.529-.916l8.422-14.588a.61.61 0 1 1 1.058.61l-8.422 14.588a.61.61 0 0 1-.529.306" style="fill:#7495b6"/><path d="M364.445 221.114a3.256 3.256 0 0 1-.728-6.427l27.995-6.449a3.26 3.26 0 0 1 3.903 2.441 3.256 3.256 0 0 1-2.441 3.903l-27.995 6.449a3.3 3.3 0 0 1-.734.083" style="fill:#537999"/><path d="M364.445 221.114a3.257 3.257 0 0 1-2.816-4.883L372.9 196.71a3.25 3.25 0 0 1 4.447-1.191 3.255 3.255 0 0 1 1.192 4.446l-11.271 19.521a3.26 3.26 0 0 1-2.823 1.628" style="fill:#244e6b"/><path d="M385.104 465.465a7.5 7.5 0 0 0-1.108 1.453l-.465-.241a.602.602 0 0 0-1.188.204.604.604 0 0 0 .854.477l.451.234a7.3 7.3 0 0 0-.539 1.744l.746.132a6.6 6.6 0 0 1 1.792-3.473zM390.592 463.163a8 8 0 0 0-.51.017l-.074-.626a.716.716 0 1 0-.752.086l.073.624a7.6 7.6 0 0 0-2.06.646l.327.684a6.9 6.9 0 0 1 2.995-.673c.496 0 .993.053 1.475.158l.161-.741a7.7 7.7 0 0 0-1.635-.175M397.194 465.711a.603.603 0 1 0-.677-.589l-.416.363a7.6 7.6 0 0 0-1.408-1.139l-.404.641a6.74 6.74 0 0 1 2.563 2.925l.691-.313a7.4 7.4 0 0 0-.942-1.545l.402-.351a.6.6 0 0 0 .191.008M390.044 473.372c-.386.023-.775.035-1.157.035-.88 0-1.733-.061-2.478-.179a9 9 0 0 1-1.27-.292 6.17 6.17 0 0 0 5.388 3.125c2.855 0 5.262-1.916 5.95-4.504-.682.449-1.505.825-2.459 1.123-1.179.367-2.554.606-3.974.692" style="fill:#a5b7c6"/><path d="M390.592 464.68c-3.352 0-6.08 2.666-6.08 5.943 0 .426.046.849.137 1.261.674.483 2.706.89 5.348.731 2.879-.173 5.297-.957 6.672-2.159a6 6 0 0 0-.045-.582c-.38-2.961-2.974-5.194-6.032-5.194m-2.16 6.514c-1.02 0-1.85-.83-1.85-1.85s.83-1.85 1.85-1.85 1.85.83 1.85 1.85-.83 1.85-1.85 1.85m4.738-.908a1.361 1.361 0 0 1 0-2.721 1.362 1.362 0 0 1 0 2.721M406.595 466.547c-.295-.116-.806-.309-1.382-.237-.551.069-.844.341-.844 1.007v.866h2.228v1.717h-2.228v5.455h-1.932V469.9h-1.34v-1.717h1.34v-.888c0-1.68.896-2.783 2.568-2.783a3.95 3.95 0 0 1 1.59.308zM411.298 469.879a3 3 0 0 0-.526-.046c-.896 0-1.51.548-1.51 1.614v3.908h-1.932v-7.172h1.873v.785c.451-.673 1.14-.977 2.021-.977.414 0 .848.128 1.094.337zM418.965 471.757c0 .222-.015.489-.037.651h-5.085c.207 1.036.933 1.488 1.843 1.488.622 0 1.295-.252 1.813-.688l1.132 1.243c-.814.748-1.85 1.088-3.057 1.088-2.198 0-3.723-1.495-3.723-3.753s1.48-3.797 3.627-3.797c2.066.001 3.48 1.533 3.487 3.768m-5.114-.666h3.175c-.177-.918-.733-1.436-1.562-1.436-.91 0-1.443.548-1.613 1.436M426.618 471.757c0 .222-.015.489-.037.651h-5.085c.207 1.036.932 1.488 1.843 1.488.622 0 1.295-.252 1.813-.688l1.132 1.243c-.814.748-1.85 1.088-3.057 1.088-2.198 0-3.723-1.495-3.723-3.753s1.48-3.797 3.627-3.797c2.066.001 3.48 1.533 3.487 3.768m-5.114-.666h3.175c-.178-.918-.733-1.436-1.562-1.436-.91 0-1.443.548-1.613 1.436M434.964 471.764c0 2.154-1.495 3.775-3.471 3.775-.962 0-1.643-.378-2.109-.933v3.708h-1.924v-10.133h1.887v.792c.466-.585 1.155-.984 2.139-.984 1.983.001 3.478 1.621 3.478 3.775m-5.677 0c0 1.132.747 1.976 1.843 1.976 1.14 0 1.85-.881 1.85-1.976s-.71-1.976-1.85-1.976c-1.095 0-1.843.844-1.843 1.976M438.068 465.836c0 .696-.54 1.229-1.236 1.229a1.21 1.21 0 0 1-1.229-1.229 1.22 1.22 0 0 1 1.229-1.243 1.225 1.225 0 0 1 1.236 1.243m-.259 9.518h-1.932v-7.172h1.932zM441.032 470.736l2.702-2.554h2.368l-3.479 3.375 3.501 3.797h-2.376l-2.716-2.901v2.901H439.1v-10.658h1.932zM309.412 475.289v-1.055c-.527.718-1.391 1.23-2.387 1.23-1.846 0-3.149-1.406-3.149-3.706 0-2.256 1.289-3.721 3.149-3.721.952 0 1.816.469 2.387 1.245v-3.765h1.099v9.77h-1.099zm0-1.919v-3.208c-.395-.615-1.245-1.143-2.124-1.143-1.421 0-2.27 1.172-2.27 2.739s.85 2.724 2.27 2.724c.88.001 1.729-.496 2.124-1.112M311.932 471.744c0-2.051 1.465-3.706 3.486-3.706 2.139 0 3.398 1.67 3.398 3.794v.279h-5.727c.088 1.333 1.026 2.446 2.549 2.446.805 0 1.626-.322 2.182-.894l.527.718c-.703.703-1.655 1.084-2.812 1.084-2.095 0-3.603-1.509-3.603-3.721m3.472-2.797c-1.509 0-2.256 1.274-2.315 2.358h4.643c-.014-1.055-.717-2.358-2.328-2.358M319.607 474.351l.571-.791c.469.542 1.362 1.011 2.329 1.011 1.084 0 1.67-.513 1.67-1.216 0-1.714-4.38-.659-4.38-3.281 0-1.098.952-2.036 2.636-2.036 1.201 0 2.051.454 2.622 1.026l-.513.762c-.424-.513-1.201-.894-2.109-.894-.967 0-1.567.483-1.567 1.113 0 1.552 4.38.527 4.38 3.281 0 1.187-.952 2.138-2.783 2.138-1.157.001-2.138-.351-2.856-1.113M326.477 466.471c0-.41.337-.747.732-.747a.75.75 0 0 1 .747.747c0 .41-.337.732-.747.732a.734.734 0 0 1-.732-.732m.19 8.818v-7.075h1.099v7.075zM329.582 477.105l.556-.82c.586.703 1.289.967 2.3.967 1.172 0 2.27-.571 2.27-2.124v-1.011c-.513.718-1.377 1.26-2.373 1.26-1.845 0-3.149-1.377-3.149-3.662 0-2.27 1.289-3.677 3.149-3.677.952 0 1.802.469 2.373 1.245v-1.069h1.099v6.87c0 2.344-1.641 3.076-3.369 3.076-1.201 0-2.021-.234-2.856-1.055m5.127-3.852v-3.091c-.381-.615-1.23-1.143-2.109-1.143-1.421 0-2.27 1.128-2.27 2.695 0 1.553.849 2.695 2.27 2.695.878.001 1.728-.541 2.109-1.156M342.413 475.289v-4.629c0-1.245-.63-1.641-1.582-1.641-.865 0-1.685.527-2.095 1.099v5.17h-1.099v-7.075h1.099v1.025c.498-.586 1.465-1.201 2.519-1.201 1.48 0 2.256.747 2.256 2.285v4.966h-1.098zM344.932 471.744c0-2.051 1.465-3.706 3.486-3.706 2.138 0 3.398 1.67 3.398 3.794v.279h-5.727c.088 1.333 1.025 2.446 2.549 2.446.806 0 1.626-.322 2.183-.894l.527.718c-.703.703-1.655 1.084-2.812 1.084-2.095 0-3.604-1.509-3.604-3.721m3.472-2.797c-1.509 0-2.256 1.274-2.314 2.358h4.643c-.015-1.055-.718-2.358-2.329-2.358M358.35 475.289v-1.055c-.527.718-1.392 1.23-2.388 1.23-1.845 0-3.149-1.406-3.149-3.706 0-2.256 1.289-3.721 3.149-3.721.952 0 1.817.469 2.388 1.245v-3.765h1.098v9.77h-1.098zm0-1.919v-3.208c-.396-.615-1.245-1.143-2.124-1.143-1.421 0-2.27 1.172-2.27 2.739s.849 2.724 2.27 2.724c.879.001 1.728-.496 2.124-1.112M364.692 475.289v-9.77h1.099v3.765c.572-.776 1.421-1.245 2.388-1.245 1.845 0 3.149 1.465 3.149 3.721 0 2.299-1.304 3.706-3.149 3.706-.996 0-1.86-.513-2.388-1.23v1.055h-1.099zm3.208-.806c1.436 0 2.286-1.157 2.286-2.724s-.85-2.739-2.286-2.739c-.864 0-1.728.527-2.109 1.143v3.208c.38.615 1.245 1.112 2.109 1.112M372.529 477.061c.161.073.425.117.601.117.483 0 .806-.161 1.055-.747l.469-1.069-2.959-7.148h1.187l2.358 5.8 2.344-5.8h1.201l-3.545 8.51c-.425 1.025-1.143 1.421-2.08 1.435-.234 0-.601-.044-.806-.103z" style="fill:#a5b7c6"/></svg>