<svg xmlns="http://www.w3.org/2000/svg" width="375" height="300"><path fill="#4B3F6B" fill-rule="evenodd" d="M-263.351 570.909c29.685 77.331 73.689 123.988 171.79 127.377 98.102 3.39 167.085-60.547 256.043-73.22s135.24 107.895 240.73 152.532c105.488 44.638 274.775.333 377.9-125.622 103.128-125.955 95.508-324.686 16.28-413.178-79.23-88.491-191.135-154.055-555.892-14.038s-536.537 268.818-506.852 346.149zM-514-377.482c0 82.833 24.36 142.16 114.732 180.482 90.371 38.321 177.686 3.352 265.277 23.4S-46.401-24.405 36.086 55.071s256.405 98.781 397.82 18.15c141.415-80.632 205.52-268.896 163.267-379.902S473.943-519 83.236-519-514-460.314-514-377.482"/></svg>