<?xml version="1.0" encoding="UTF-8" standalone="no"?>
<!-- Created with Inkscape (http://www.inkscape.org/) -->

<svg
   width="110.1374"
   height="48"
   viewBox="0 0 29.140522 12.7"
   version="1.1"
   id="svg1"
   xmlns="http://www.w3.org/2000/svg"
   xmlns:svg="http://www.w3.org/2000/svg">
  <defs
     id="defs1" />
  <g
     id="layer1"
     transform="matrix(0.29899374,0,0,0.29899374,-14.332174,-39.411515)"
     style="display:inline">
    <rect
       style="display:none;fill:#128195;fill-opacity:1;stroke:none;stroke-width:1.43031;stroke-dasharray:none;stroke-opacity:1"
       id="rect7"
       width="105.83334"
       height="105.83334"
       x="43.749012"
       y="100.13508"
       ry="16.801958" />
    <g
       id="g6"
       transform="matrix(0.85271997,0,0,0.85271997,12.410419,21.465473)">
      <path
         d="m 86.848853,150.30595 v -16.34969 h 2.692462 v 3.12131 h 0.05983 q 0.209413,-1.57552 1.346231,-2.49705 1.136824,-0.92152 3.051464,-0.92152 2.57279,0 3.948932,1.54579 1.406064,1.51606 1.406064,4.34009 v 1.39716 H 96.66138 v -1.39716 q 0,-3.5672 -3.5002,-3.5672 -1.76506,0 -2.692464,1.01071 -0.927404,1.0107 -0.927404,2.91321 v 10.40435 z m 23.573997,0.29727 q -2.90187,0 -4.69685,-1.72415 -1.76506,-1.75388 -1.76506,-4.81573 v -3.86447 q 0,-3.06185 1.76506,-4.786 1.79498,-1.75387 4.69685,-1.75387 1.94456,0 3.38054,0.77289 1.4659,0.7729 2.27364,2.17005 0.80774,1.39715 0.80774,3.29966 v 2.91322 h -10.2912 v 1.54579 q 0,1.81333 1.04707,2.88349 1.04707,1.04043 2.78221,1.04043 1.49582,0 2.45314,-0.5648 0.98723,-0.59454 1.19665,-1.57552 h 2.69246 q -0.26925,2.05114 -2.00439,3.26994 -1.73514,1.18907 -4.33786,1.18907 z m -3.82928,-9.86927 h 7.65857 v -0.83235 q 0,-1.93223 -1.01716,-2.97267 -0.98723,-1.07016 -2.81213,-1.07016 -1.82489,0 -2.84204,1.07016 -0.98724,1.04044 -0.98724,2.97267 z m 18.12927,14.92281 2.42321,-6.36152 -6.13283,-15.33898 h 2.90188 l 3.88911,10.10708 q 0.23933,0.59454 0.44875,1.24852 0.20941,0.65399 0.29916,1.12962 0.0897,-0.47563 0.29916,-1.12962 0.20941,-0.65398 0.41883,-1.24852 l 3.61987,-10.10708 h 2.84204 l -8.19705,21.7005 z"
         id="text2"
         style="font-size:25.4px;line-height:0;font-family:'JetBrainsMono Nerd Font';-inkscape-font-specification:'JetBrainsMono Nerd Font';letter-spacing:0px;fill:#ffffff;fill-opacity:1;stroke:none;stroke-width:1.05833;stroke-dasharray:none;stroke-opacity:1"
         aria-label="rey&#10;&#10;&#10;&#10;" />
      <path
         d="m 97.31954,175.05506 q -2.18389,0 -3.5002,-1.24852 -1.2864,-1.27825 -1.2864,-3.35912 v -14.65526 h -5.684094 v -2.43759 H 95.2254 v 17.09285 q 0,1.01071 0.56841,1.60525 0.56841,0.5648 1.52573,0.5648 h 5.08575 v 2.43759 z m 9.12445,0 v -2.43759 h 5.83366 v -11.4745 h -5.23533 v -2.43759 h 7.92779 v 13.91209 h 5.53451 v 2.43759 z m 6.88073,-19.29263 q -0.98724,0 -1.55565,-0.50535 -0.5684,-0.50535 -0.5684,-1.36743 0,-0.8918 0.5684,-1.39715 0.56841,-0.53508 1.55565,-0.53508 0.98724,0 1.55564,0.53508 0.56841,0.50535 0.56841,1.39715 0,0.86208 -0.56841,1.36743 -0.5684,0.50535 -1.55564,0.50535 z m 17.47111,19.5899 q -2.84205,0 -4.54728,-1.6647 -1.70522,-1.69442 -1.70522,-4.57791 v -10.40434 h 2.69246 v 10.40434 q 0,1.7836 0.95732,2.85377 0.95732,1.04043 2.60272,1.04043 1.67531,0 2.63263,-1.04043 0.98723,-1.07017 0.98723,-2.85377 v -10.40434 h 2.69247 v 10.40434 q 0,2.88349 -1.73515,4.57791 -1.73514,1.6647 -4.57718,1.6647 z m 10.79978,-0.29727 v -16.34968 h 2.33347 v 2.17005 h 0.0598 q 0.14958,-1.09989 0.86757,-1.78361 0.74791,-0.68371 1.88472,-0.68371 1.07699,0 1.8249,0.62426 0.7479,0.62426 1.07698,1.69442 h 0.0299 q 0.20941,-1.07016 0.9274,-1.69442 0.74791,-0.62426 1.88473,-0.62426 1.58556,0 2.51296,1.18907 0.95732,1.15934 0.95732,3.03212 v 12.42576 h -2.51296 v -12.45548 q 0,-0.98099 -0.47866,-1.54579 -0.47866,-0.59454 -1.31632,-0.59454 -0.80774,0 -1.2864,0.56481 -0.47866,0.56481 -0.47866,1.54579 v 12.48521 h -2.2138 v -12.45548 q 0,-0.98099 -0.47866,-1.54579 -0.47866,-0.59454 -1.2864,-0.59454 -0.83766,0 -1.31632,0.56481 -0.47866,0.56481 -0.47866,1.54579 v 12.48521 z"
         id="text6"
         style="font-size:25.4px;line-height:0;font-family:'JetBrainsMono Nerd Font';-inkscape-font-specification:'JetBrainsMono Nerd Font';letter-spacing:0px;fill:#ffffff;fill-opacity:1;stroke:none;stroke-width:1.05833;stroke-dasharray:none;stroke-opacity:1"
         aria-label="lium" />
      <path
         style="font-size:287.829px;font-family:'JetBrainsMono Nerd Font';-inkscape-font-specification:'JetBrainsMono Nerd Font';fill:#ffffff;fill-opacity:1;stroke:#128195;stroke-width:1.05833;stroke-dasharray:none;stroke-opacity:1"
         d="m 46.236241,178.69049 c 0,0 6.754713,-16.1962 6.754713,-24.4103 0,-8.21406 -6.754713,-24.34351 -6.754713,-24.34351 h 16.01599 c 4.011057,0 7.457174,0.60106 10.338355,1.80324 2.937675,1.20213 5.197433,2.89404 6.779261,5.07572 3.612411,5.27895 4.032428,11.68393 4.032428,17.46455 -0.250967,5.93123 -0.308936,12.1149 -4.032428,17.53134 -1.581828,2.18168 -3.841586,3.87359 -6.779261,5.07576 -2.881181,1.20213 -6.327298,1.8032 -10.338355,1.8032 z m 8.25078,-5.34289 h 7.76521 c 3.728587,0 6.638015,-0.82368 8.728284,-2.47109 4.900886,-4.3531 5.867084,-11.2372 5.867084,-16.59632 -0.446782,-5.36702 -0.677488,-12.17893 -5.867084,-16.52953 -2.090269,-1.64741 -4.999697,-2.4711 -8.728284,-2.4711 h -7.76521 c 0,0 4.666235,12.54307 4.666235,19.00063 4e-6,6.45755 -4.666235,19.06741 -4.666235,19.06741 z"
         id="path6"
         aria-label="D" />
      <path
         style="font-size:287.829px;font-family:'JetBrainsMono Nerd Font';-inkscape-font-specification:'JetBrainsMono Nerd Font';display:inline;fill:#ffffff;fill-opacity:1;stroke:#128195;stroke-width:1.05833;stroke-dasharray:none;stroke-opacity:1"
         d="m 42.455255,178.69049 c 0,0 6.754713,-16.1962 6.754713,-24.4103 0,-8.21406 -6.754713,-24.34351 -6.754713,-24.34351 h 16.01599 c 4.011057,0 7.457174,0.60106 10.338355,1.80324 2.937675,1.20213 5.197433,2.89404 6.779261,5.07572 3.612411,5.27895 4.032428,11.68393 4.032428,17.46455 -0.250967,5.93123 -0.308936,12.1149 -4.032428,17.53134 -1.581828,2.18168 -3.841586,3.87359 -6.779261,5.07576 -2.881181,1.20213 -6.327298,1.8032 -10.338355,1.8032 z m 8.25078,-5.34289 h 7.76521 c 3.728587,0 6.638015,-0.82368 8.728284,-2.47109 4.900886,-4.3531 5.867084,-11.2372 5.867084,-16.59632 -0.446782,-5.36702 -0.677488,-12.17893 -5.867084,-16.52953 -2.090269,-1.64741 -4.999697,-2.4711 -8.728284,-2.4711 h -7.76521 c 0,0 4.666235,12.54307 4.666235,19.00063 4e-6,6.45755 -4.666235,19.06741 -4.666235,19.06741 z"
         id="text1"
         aria-label="D" />
    </g>
  </g>
</svg>
